/vscmnt/brussel_pixiu_data/_data_brussel/112/vsc11236/PredSimResults/SUBJ09mtu3D/worker9.mot
version=1
nRows=6
nColumns=50
inDegrees=yes
endheader
                time	         pelvis_tilt	         pelvis_list	     pelvis_rotation	           pelvis_tx	           pelvis_ty	           pelvis_tz	       hip_flexion_r	     hip_adduction_r	      hip_rotation_r	        knee_angle_r	       ankle_angle_r	         mtp_angle_r	       hip_flexion_l	     hip_adduction_l	      hip_rotation_l	        knee_angle_l	       ankle_angle_l	         mtp_angle_l	    lumbar_extension	      lumbar_bending	     lumbar_rotation	 ercspn_r/activation	 intobl_r/activation	 extobl_r/activation	    abd_r/activation	    add_r/activation	hamstrings_r/activation	bifemsh_r/activation	glut_max_r/activation	iliopsoas_r/activation	rect_fem_r/activation	  vasti_r/activation	gastroc_r/activation	 soleus_r/activation	tib_ant_r/activation	 ercspn_l/activation	 intobl_l/activation	 extobl_l/activation	    abd_l/activation	    add_l/activation	hamstrings_l/activation	bifemsh_l/activation	glut_max_l/activation	iliopsoas_l/activation	rect_fem_l/activation	  vasti_l/activation	gastroc_l/activation	 soleus_l/activation	tib_ant_l/activation	
          1.79665650	         -2.36505627	          1.98791237	         -8.27237356	          2.22785406	          0.99181511	          0.00765147	        -14.09337302	         -3.27151852	         -3.59451600	        -11.20010716	          8.55411063	         31.26118427	         26.98911493	         -0.37480213	         -8.42329531	         -6.60782610	          4.87631506	          0.24442558	        -13.92934179	         -0.80101309	          4.01636832	          0.02522096	          0.01000190	          0.01000349	          0.02663226	          0.01438291	          0.04529762	          0.11353585	          0.01975339	          0.01002618	          0.01000455	          0.01000257	          0.17091314	          0.28898013	          0.01000618	          0.02930672	          0.14993780	          0.03136103	          0.03700014	          0.20655128	          0.04445909	          0.14218720	          0.07520638	          0.12935092	          0.02625979	          0.01000104	          0.01723107	          0.01439136	          0.28932515	
          1.80863421	         -2.38251859	          2.00818704	         -8.20205443	          2.24671977	          0.98995004	          0.00723362	        -14.82119099	         -3.44607605	         -4.10678065	        -11.76988288	          7.44773640	         32.95073975	         26.81251607	         -0.23865305	         -8.29430973	         -8.18698762	          4.57941594	          0.20774324	        -13.48648737	         -1.13903359	          4.15004621	          0.02102702	          0.01000078	          0.01001140	          0.02220047	          0.01199019	          0.03781506	          0.09464690	          0.01646649	          0.01000613	          0.01000278	          0.01000582	          0.14247229	          0.26393502	          0.01000015	          0.02443072	          0.12498714	          0.02614235	          0.11360280	          0.19224866	          0.05338472	          0.11852705	          0.07613424	          0.10782589	          0.02189042	          0.01000080	          0.01438215	          0.01199720	          0.31506034	
          1.82061192	         -2.38688819	          2.02955435	         -8.09513091	          2.26579460	          0.98839526	          0.00674231	        -15.37825010	         -3.63146350	         -4.64145311	        -12.67343599	          6.20406045	         34.63400861	         26.57038733	         -0.09928925	         -8.17362404	         -9.68385867	          4.17191341	          0.20321290	        -13.03189032	         -1.48014701	          4.26237773	          0.04225848	          0.01000074	          0.01000231	          0.01850615	          0.01000223	          0.03153594	          0.07890051	          0.01372653	          0.01002570	          0.01000586	          0.01000863	          0.11876389	          0.23262663	          0.01000027	          0.02037970	          0.10418835	          0.02179210	          0.17074105	          0.20007206	          0.05197609	          0.09880393	          0.09625459	          0.08988280	          0.01824818	          0.01000089	          0.01198943	          0.01000102	          0.34537246	
          1.83258963	         -2.37958728	          2.04321877	         -7.95205895	          2.28479500	          0.98732345	          0.00616625	        -15.66680373	         -3.82589812	         -5.19262658	        -14.04843933	          4.82056747	         36.25138113	         26.39047340	          0.02856574	         -8.09651050	        -11.28877037	          3.71587587	          0.17545955	        -12.59873944	         -1.81420294	          4.35078275	          0.06926286	          0.01000078	          0.01000137	          0.01542660	          0.03665108	          0.02631829	          0.06577562	          0.01144261	          0.01001360	          0.01000385	          0.01001056	          0.09900069	          0.19391590	          0.01000017	          0.02768501	          0.08685062	          0.01816577	          0.21286816	          0.23406130	          0.04893545	          0.08236273	          0.10353198	          0.07492559	          0.01521213	          0.03874937	          0.01000385	          0.01000155	          0.36435638	
          1.84456734	         -2.36110078	          2.04417075	         -7.77493003	          2.30356923	          0.98682757	          0.00551789	        -15.60678024	         -4.03316094	         -5.76346316	        -16.01953853	          3.32463557	         37.66139789	         26.27566975	          0.13534298	         -8.06681027	        -13.04677708	          3.48386390	          0.14340350	        -12.20247794	         -2.13646741	          4.41356285	          0.08749983	          0.01000083	          0.01000155	          0.01285952	          0.08220398	          0.02199802	          0.06004227	          0.01000037	          0.02071393	          0.01000157	          0.01000065	          0.08252622	          0.16164672	          0.01000029	          0.02310337	          0.07239803	          0.01514291	          0.24168113	          0.25798046	          0.05173275	          0.06865755	          0.11333598	          0.06245739	          0.01268143	          0.09525514	          0.01000586	          0.01000288	          0.36603304	
          1.85654505	         -2.33351341	          2.02363293	         -7.56325577	          2.32200069	          0.98699517	          0.00481925	        -15.12715177	         -4.25481761	         -6.37625048	        -18.68926511	          1.74142589	         38.63148940	         26.12875047	          0.22392543	         -8.06712305	        -14.76953077	          3.47843688	          0.11484830	        -11.85389587	         -2.43851970	          4.44796017	          0.09216630	          0.01000093	          0.01000217	          0.01071964	          0.12380306	          0.01925594	          0.05470504	          0.01000029	          0.01727238	          0.01000112	          0.01000039	          0.06879324	          0.13474736	          0.01000045	          0.01926227	          0.06035048	          0.01262311	          0.24872899	          0.27225850	          0.05465306	          0.05723310	          0.12965630	          0.05206400	          0.01057228	          0.13600646	          0.01001483	          0.01001165	          0.35154973	
